<?xml version="1.0" encoding="UTF-8" standalone="no"?><!DOCTYPE svg PUBLIC "-//W3C//DTD SVG 1.1//EN" "http://www.w3.org/Graphics/SVG/1.1/DTD/svg11.dtd"><svg width="100%" height="100%" viewBox="0 0 662 577" version="1.1" xmlns="http://www.w3.org/2000/svg" xmlns:xlink="http://www.w3.org/1999/xlink" xml:space="preserve" style="fill-rule:evenodd;clip-rule:evenodd;stroke-linejoin:round;stroke-miterlimit:1.41421;"><g><g><path d="M80.265,421.001l0,-20.71l49.893,0l1.647,14.827c3.766,-5.492 8.277,-9.728 13.533,-12.709c5.256,-2.981 11.375,-4.471 18.356,-4.471c15.768,0 28.006,6.158 36.714,18.474c8.708,12.316 13.062,28.516 13.062,48.599l0,2.471c0,18.827 -4.354,33.968 -13.062,45.421c-8.708,11.453 -20.867,17.18 -36.478,17.18c-6.668,0 -12.591,-1.235 -17.769,-3.707c-5.177,-2.471 -9.61,-6.099 -13.297,-10.884l0,36.831l16.592,3.53l0,20.71l-67.426,0l0,-20.71l16.592,-3.53l0,-127.792l-18.357,-3.53Zm98.844,44.01c0,-12.003 -2,-21.731 -6.001,-29.183c-4.001,-7.453 -10.12,-11.179 -18.357,-11.179c-5.177,0 -9.59,1.059 -13.238,3.177c-3.648,2.118 -6.53,5.139 -8.649,9.061l0,55.776c2.119,3.609 5.001,6.355 8.649,8.237c3.648,1.883 8.139,2.825 13.474,2.825c8.315,0 14.415,-3.256 18.298,-9.767c3.883,-6.511 5.824,-15.337 5.824,-26.476l0,-2.471Z" style="fill:#008c99;fill-rule:nonzero;"/><path d="M248.573,507.019l16.475,-3.53l0,-78.958l-18.24,-3.53l0,-20.71l50.246,0l1.53,18.239c4.236,-6.511 9.453,-11.571 15.65,-15.179c6.198,-3.609 13.14,-5.413 20.828,-5.413c12.866,0 22.907,4.04 30.124,12.12c7.217,8.08 10.826,20.749 10.826,38.008l0,55.423l16.474,3.53l0,20.593l-65.661,0l0,-20.593l14.709,-3.53l0,-55.306c0,-8.55 -1.726,-14.61 -5.177,-18.18c-3.452,-3.569 -8.669,-5.354 -15.651,-5.354c-4.55,0 -8.629,0.922 -12.238,2.765c-3.608,1.844 -6.628,4.452 -9.06,7.826l0,68.249l13.885,3.53l0,20.593l-64.72,0l0,-20.593Z" style="fill:#008c99;fill-rule:nonzero;"/><path d="M475.638,511.491c-4.08,5.962 -9.12,10.551 -15.121,13.768c-6.001,3.216 -12.846,4.824 -20.534,4.824c-13.414,0 -23.926,-4.295 -31.536,-12.885c-7.609,-8.59 -11.414,-21.946 -11.414,-40.067l0,-52.6l-14.003,-3.53l0,-20.71l48.363,0l0,77.075c0,9.257 1.549,15.905 4.648,19.945c3.099,4.041 7.708,6.061 13.827,6.061c5.413,0 10.1,-0.883 14.061,-2.648c3.962,-1.765 7.198,-4.295 9.708,-7.59l0,-68.603l-15.062,-3.53l0,-20.71l49.423,0l0,103.198l15.415,3.53l0,20.593l-45.539,0l-2.236,-16.121Z" style="fill:#008c99;fill-rule:nonzero;"/><path d="M570.792,369.108l0,31.183l22.358,0l0,24.123l-22.358,0l0,64.837c0,4.942 1.02,8.472 3.059,10.59c2.04,2.119 4.786,3.178 8.237,3.178c2.354,0 4.413,-0.098 6.178,-0.295c1.765,-0.196 3.746,-0.529 5.943,-1l2.941,24.829c-3.844,1.177 -7.648,2.059 -11.414,2.648c-3.765,0.588 -7.845,0.882 -12.238,0.882c-11.845,0 -20.965,-3.256 -27.358,-9.767c-6.394,-6.511 -9.591,-16.827 -9.591,-30.947l0,-64.955l-18.709,0l0,-24.123l18.709,0l0,-31.183l34.243,0Z" style="fill:#008c99;fill-rule:nonzero;"/></g><path d="M443.348,0.858c2.329,0.009 4.657,0.043 6.984,0.111c4.608,0.135 9.211,0.391 13.805,0.77c14.091,1.162 28.088,3.482 41.789,6.977c24.76,6.315 48.578,16.481 70.015,30.421c3.101,2.016 6.15,4.111 9.144,6.283c3.296,2.392 6.525,4.878 9.677,7.456c3.591,2.937 7.084,5.994 10.467,9.168c6.53,6.126 12.651,12.689 18.274,19.658c6.401,7.932 12.154,16.391 17.12,25.294c5.592,10.027 10.181,20.615 13.596,31.578c2.211,7.098 3.929,14.348 5.128,21.684c0.991,6.061 1.627,12.179 1.906,18.314c0.399,8.774 0.07,17.582 -0.989,26.302c-0.898,7.404 -2.324,14.742 -4.254,21.945c-2.722,10.153 -6.448,20.03 -11.058,29.475c-4.026,8.248 -8.724,16.163 -13.993,23.677c-1.806,2.576 -3.68,5.105 -5.617,7.584c-12.75,16.324 -28.197,30.468 -45.288,42.141c-3.069,2.096 -6.191,4.113 -9.363,6.051c-22.127,13.521 -46.566,23.142 -71.853,28.809c-18.425,4.129 -37.312,6.164 -56.192,6.161c-18.665,-0.002 -37.332,-1.985 -55.558,-6.02c-26.059,-5.769 -51.233,-15.733 -73.918,-29.832c-3.256,-2.023 -6.459,-4.131 -9.604,-6.323c-6.208,-4.325 -12.189,-8.977 -17.896,-13.945c-1.826,-1.59 -3.624,-3.212 -5.393,-4.866c-0.64,-0.599 -1.277,-1.203 -1.91,-1.811c-0.224,-0.215 -0.445,-0.438 -0.675,-0.647c-0.068,-0.062 -0.138,-0.121 -0.21,-0.179c-0.277,-0.216 -0.578,-0.4 -0.9,-0.543c-0.854,-0.376 -1.828,-0.459 -2.732,-0.229c-0.405,0.102 -0.789,0.267 -1.146,0.482c-0.17,0.105 -0.338,0.212 -0.507,0.318c-0.363,0.227 -0.727,0.452 -1.092,0.677c-3.555,2.18 -7.182,4.24 -10.881,6.167c-3.862,2.011 -7.798,3.875 -11.794,5.603c-0.046,0.289 -0.095,0.578 -0.146,0.866c-0.38,2.093 -0.885,4.16 -1.446,6.211c-0.58,2.118 -1.22,4.22 -1.888,6.311c-1.638,5.125 -3.444,10.195 -5.264,15.257c-1.325,3.674 -2.663,7.344 -3.991,11.018c-1.058,2.933 -2.111,5.868 -3.132,8.815c-0.743,2.141 -1.47,4.287 -2.164,6.445c-0.595,1.848 -1.168,3.704 -1.688,5.575c-0.407,1.462 -0.789,2.934 -1.077,4.424c-0.085,0.44 -0.155,0.882 -0.223,1.325l-0.041,0.237c-0.104,0.542 -0.233,1.078 -0.402,1.605c-0.354,1.107 -0.861,2.164 -1.5,3.134c-1.141,1.73 -2.703,3.171 -4.52,4.167c-1.725,0.946 -3.664,1.485 -5.629,1.565c-1.232,0.05 -2.471,-0.08 -3.666,-0.384c-1.411,-0.359 -2.758,-0.961 -3.967,-1.772c-0.844,-0.566 -1.619,-1.233 -2.306,-1.982c-0.318,-0.348 -0.61,-0.716 -0.898,-1.088c-0.292,-0.377 -0.579,-0.757 -0.862,-1.14c-1.209,-1.637 -2.35,-3.323 -3.455,-5.031c-1.985,-3.063 -3.859,-6.197 -5.691,-9.353c-2.217,-3.819 -4.368,-7.677 -6.501,-11.544c-2.228,-4.041 -4.433,-8.095 -6.652,-12.14c-0.572,-1.04 -1.144,-2.08 -1.718,-3.119c-1.471,-2.653 -2.95,-5.302 -4.476,-7.923c-1.153,-1.98 -2.33,-3.948 -3.592,-5.86l-0.058,-0.088c-0.499,-0.002 -0.997,-0.006 -1.496,-0.01c-0.547,-0.007 -1.095,-0.015 -1.642,-0.025c-2.902,-0.059 -5.801,-0.174 -8.698,-0.356c-6.056,-0.381 -12.095,-1.041 -18.09,-1.981c-16.809,-2.638 -33.276,-7.495 -48.768,-14.542c-8.731,-3.972 -17.147,-8.637 -25.119,-13.971c-9.506,-6.36 -18.379,-13.674 -26.367,-21.862c-6.067,-6.22 -11.621,-12.944 -16.538,-20.108c-5.049,-7.356 -9.424,-15.177 -13.001,-23.352c-3.016,-6.894 -5.461,-14.039 -7.28,-21.342c-1.765,-7.088 -2.939,-14.321 -3.503,-21.604c-0.953,-12.314 -0.165,-24.757 2.345,-36.851c2.104,-10.14 5.415,-20.02 9.789,-29.406c3.839,-8.236 8.493,-16.087 13.824,-23.443c4.642,-6.404 9.795,-12.435 15.368,-18.046c4.976,-5.01 10.286,-9.686 15.87,-14.007c11.334,-8.773 23.786,-16.079 36.909,-21.832c10.483,-4.595 21.397,-8.2 32.542,-10.802c17.274,-4.033 35.099,-5.65 52.819,-4.917c10.221,0.422 20.41,1.634 30.44,3.65c11.709,2.353 23.201,5.801 34.251,10.336c5.382,2.209 10.658,4.675 15.802,7.394c1.659,0.877 3.305,1.781 4.935,2.711c0.542,0.309 1.082,0.621 1.62,0.936c0.283,0.165 0.565,0.334 0.85,0.497c0.102,0.056 0.204,0.112 0.307,0.167c0.912,0.471 1.878,0.826 2.882,1.041c1.312,0.28 2.672,0.325 3.999,0.134c1.107,-0.16 2.19,-0.484 3.203,-0.959c0.65,-0.304 1.27,-0.672 1.85,-1.094c0.314,-0.229 0.614,-0.474 0.904,-0.732c0.34,-0.308 0.678,-0.619 1.017,-0.929c1.905,-1.723 3.836,-3.416 5.802,-5.07c3.964,-3.335 8.053,-6.522 12.253,-9.556c2.827,-2.043 5.705,-4.018 8.627,-5.922c21.205,-13.817 44.749,-23.938 69.231,-30.286c13.586,-3.523 27.468,-5.888 41.449,-7.112c4.623,-0.405 9.256,-0.685 13.894,-0.842c2.467,-0.083 4.934,-0.129 7.403,-0.146c0.729,-0.003 1.459,-0.004 2.188,-0.003Zm-1.386,20.833c-1.594,0.007 -3.188,0.025 -4.781,0.061c-3.161,0.071 -6.32,0.204 -9.475,0.4c-9.918,0.616 -19.799,1.85 -29.56,3.715c-23.779,4.543 -46.883,12.841 -67.895,24.902c-2.942,1.689 -5.842,3.451 -8.695,5.286c-6.263,4.027 -12.3,8.407 -18.056,13.129c-1.789,1.467 -3.55,2.968 -5.282,4.501c-0.574,0.508 -1.146,1.02 -1.714,1.536c-0.369,0.336 -0.737,0.674 -1.107,1.01l-0.247,0.219c-0.742,0.646 -1.506,1.265 -2.302,1.845c-1.566,1.141 -3.236,2.139 -4.982,2.98c-3.332,1.604 -6.939,2.625 -10.618,3.01c-3.678,0.384 -7.418,0.13 -11.01,-0.751c-2.199,-0.54 -4.34,-1.312 -6.377,-2.301c-0.591,-0.287 -1.174,-0.592 -1.747,-0.915c-0.287,-0.161 -0.571,-0.329 -0.855,-0.496c-0.379,-0.223 -0.759,-0.443 -1.139,-0.663c-0.477,-0.274 -0.955,-0.546 -1.434,-0.816c-2.027,-1.136 -4.077,-2.23 -6.152,-3.277c-4.206,-2.123 -8.507,-4.057 -12.885,-5.8c-10.988,-4.375 -22.449,-7.547 -34.11,-9.517c-9.207,-1.554 -18.538,-2.36 -27.874,-2.437c-9.349,-0.077 -18.704,0.573 -27.949,1.972c-10.535,1.594 -20.926,4.161 -30.976,7.702c-13.981,4.926 -27.312,11.743 -39.372,20.374c-6.059,4.336 -11.793,9.128 -17.107,14.35c-4.787,4.704 -9.231,9.758 -13.255,15.129c-4.501,6.007 -8.473,12.413 -11.806,19.14c-2.471,4.987 -4.587,10.15 -6.313,15.442c-1.687,5.174 -2.997,10.47 -3.909,15.834c-1.497,8.799 -1.918,17.78 -1.262,26.681c0.53,7.189 1.767,14.323 3.684,21.272c1.514,5.49 3.45,10.862 5.767,16.064c1.896,4.256 4.048,8.397 6.43,12.402c1.993,3.351 4.146,6.606 6.444,9.756c1.922,2.635 3.946,5.196 6.061,7.678c1.87,2.196 3.812,4.33 5.819,6.4c1.738,1.792 3.524,3.537 5.356,5.233c13.022,12.052 28.282,21.599 44.633,28.447c15.085,6.317 31.106,10.339 47.363,12.077c4.65,0.498 9.321,0.809 13.996,0.936c1.471,0.041 2.943,0.063 4.415,0.067c0.797,0.002 1.594,-0.007 2.39,-0.008c0.23,0.003 0.23,0.003 0.459,0.009c0.383,0.016 0.765,0.04 1.147,0.081c0.904,0.096 1.799,0.27 2.674,0.519c2.466,0.703 4.75,2.006 6.611,3.772c0.444,0.421 0.863,0.868 1.256,1.338c0.355,0.425 0.689,0.868 1.018,1.313c0.405,0.549 0.798,1.108 1.182,1.672c1.293,1.899 2.496,3.859 3.67,5.834c0.994,1.671 1.965,3.356 2.922,5.048c1.343,2.373 2.665,4.758 3.981,7.146c2.21,4.022 4.405,8.052 6.615,12.074c1.883,3.421 3.779,6.835 5.717,10.225l0.293,0.512l0.236,0.41c0.27,-0.802 0.545,-1.601 0.82,-2.401c0.975,-2.817 1.975,-5.625 2.983,-8.431c1.471,-4.077 2.957,-8.149 4.427,-12.227c0.977,-2.716 1.948,-5.435 2.891,-8.163c0.731,-2.118 1.447,-4.241 2.129,-6.375c0.536,-1.677 1.052,-3.361 1.524,-5.057c0.405,-1.454 0.786,-2.918 1.074,-4.401c0.09,-0.468 0.163,-0.937 0.235,-1.408l0.055,-0.321c0.079,-0.423 0.165,-0.845 0.267,-1.263c0.231,-0.936 0.529,-1.855 0.892,-2.747c0.677,-1.663 1.58,-3.233 2.676,-4.654c1.031,-1.337 2.233,-2.542 3.567,-3.577c0.845,-0.655 1.742,-1.241 2.681,-1.753c0.475,-0.258 0.961,-0.492 1.453,-0.715c0.563,-0.244 1.127,-0.486 1.689,-0.733c1.533,-0.676 3.058,-1.373 4.57,-2.096c3.11,-1.487 6.171,-3.075 9.177,-4.764c1.542,-0.867 3.07,-1.761 4.582,-2.681c0.431,-0.261 0.859,-0.525 1.287,-0.791c0.346,-0.215 0.69,-0.433 1.037,-0.647c0.233,-0.14 0.232,-0.139 0.466,-0.277c0.624,-0.357 1.258,-0.693 1.908,-0.999c1.44,-0.676 2.944,-1.215 4.486,-1.605c2.855,-0.724 5.835,-0.937 8.764,-0.63c3.015,0.316 5.968,1.184 8.675,2.551c1.662,0.839 3.229,1.865 4.663,3.052c0.347,0.287 0.686,0.583 1.016,0.888c0.18,0.165 0.355,0.334 0.53,0.503c0.281,0.271 0.562,0.541 0.844,0.81c0.285,0.271 0.57,0.542 0.856,0.812c1.439,1.35 2.896,2.681 4.376,3.987c3.14,2.77 6.375,5.432 9.694,7.984c2.883,2.217 5.829,4.352 8.831,6.403c2.701,1.844 5.447,3.622 8.235,5.331c20.228,12.399 42.593,21.201 65.725,26.393c16.956,3.805 34.333,5.671 51.708,5.673c17.348,0.002 34.703,-1.863 51.634,-5.657c22.696,-5.086 44.653,-13.646 64.582,-25.671c2.884,-1.74 5.725,-3.553 8.517,-5.437c15.397,-10.389 29.357,-22.982 40.893,-37.561c1.624,-2.053 3.2,-4.144 4.724,-6.273c5.008,-6.996 9.457,-14.396 13.232,-22.129c3.801,-7.788 6.917,-15.911 9.253,-24.258c1.883,-6.728 3.258,-13.598 4.1,-20.534c0.877,-7.229 1.177,-14.528 0.901,-21.806c-0.233,-6.186 -0.887,-12.356 -1.954,-18.454c-0.967,-5.526 -2.273,-10.993 -3.902,-16.362c-2.916,-9.61 -6.87,-18.896 -11.702,-27.698c-4.249,-7.74 -9.174,-15.104 -14.652,-22.027c-4.951,-6.258 -10.355,-12.156 -16.124,-17.667c-5.125,-4.896 -10.54,-9.487 -16.191,-13.764c-2.951,-2.233 -5.967,-4.381 -9.041,-6.442c-2.8,-1.878 -5.647,-3.684 -8.538,-5.417c-20.324,-12.187 -42.737,-20.78 -65.885,-25.773c-10.53,-2.271 -21.219,-3.801 -31.962,-4.601c-3.598,-0.268 -7.202,-0.454 -10.809,-0.56c-1.714,-0.05 -3.427,-0.079 -5.141,-0.095c-0.874,-0.006 -1.748,-0.008 -2.621,-0.007Z" style="fill:#767676;fill-rule:nonzero;"/><path d="M267.017,298.075c5.743,-3.668 13.259,-2.88 18.116,1.9c38.217,36.942 94.631,60.326 157.514,60.326c114.993,0 208.353,-78.197 208.353,-174.514c0,-96.317 -93.36,-174.513 -208.353,-174.513c-61.005,0 -115.922,22.007 -154.04,57.053c-7.063,6.468 -17.522,7.56 -25.769,2.692c-25.816,-15.241 -57.044,-24.13 -90.661,-24.13c-88.956,0 -161.177,62.238 -161.177,138.898c0,76.66 72.221,138.898 161.177,138.898c0.587,0 1.174,-0.003 1.759,-0.008c1.712,-0.015 3.334,0.763 4.393,2.107c7.296,9.258 24.677,45.814 34.622,58.435c0.584,0.74 1.552,1.062 2.462,0.818c0.91,-0.244 1.588,-1.007 1.723,-1.94c2.059,-14.22 19.017,-52.406 21.062,-66.532c0.477,-3.287 2.636,-6.087 5.694,-7.383c8.123,-3.478 15.854,-7.537 23.125,-12.107Z" style="fill:#fffefb;"/><g><path d="M412.356,310.721c-3.895,-0.398 -7.532,1.999 -8.703,5.735c-1.115,3.542 -2.29,7.066 -3.525,10.568c-0.297,0.836 -0.198,1.761 0.268,2.515c0.466,0.754 1.249,1.256 2.128,1.365c0,0.001 0.001,0.001 0.001,0.001c11.339,1.407 22.753,2.201 34.177,2.405c0.837,0.014 1.596,-0.49 1.907,-1.267c0.001,0 0.001,-0.001 0.001,-0.001c1.852,-4.626 3.586,-9.3 5.204,-14.013c0.001,-0.001 0.001,-0.001 0.001,-0.002c0.459,-1.337 0.248,-2.813 -0.568,-3.968c-0.816,-1.155 -2.137,-1.848 -3.551,-1.862c-0.438,-0.004 -0.877,-0.009 -1.315,-0.015c-8.691,-0.119 -17.377,-0.602 -26.025,-1.461Z" style="fill:#faf3d2;stroke:#e9e9e9;stroke-width:1px;"/><path d="M463.661,321.235c-0.874,2.638 -0.359,5.539 1.369,7.716c1.728,2.177 4.437,3.336 7.205,3.083c2.84,-0.257 5.677,-0.551 8.509,-0.884c6.407,-0.754 12.792,-1.702 19.14,-2.851c2.88,-0.527 5.264,-2.543 6.264,-5.295c0.601,-1.653 1.186,-3.312 1.758,-4.975c0.126,-0.369 0.252,-0.737 0.377,-1.106c0.886,-2.607 0.317,-5.489 -1.493,-7.565c-1.81,-2.075 -4.587,-3.03 -7.291,-2.507c0,0 0,0 0,0c-10.11,1.957 -20.325,3.362 -30.584,4.242c0,0 0,0 0,0c-1.282,0.11 -2.367,0.99 -2.739,2.221c-0.805,2.651 -1.643,5.291 -2.515,7.921Z" style="fill:#faf3d2;stroke:#e9e9e9;stroke-width:1px;"/><path d="M345.36,295.717c-0.889,-0.325 -1.874,-0.257 -2.711,0.186c-0.837,0.442 -1.447,1.219 -1.678,2.137c-0.573,2.265 -1.169,4.523 -1.788,6.776c-0.247,0.899 -0.498,1.797 -0.753,2.694c-1.196,4.223 1.127,8.643 5.283,10.053c0.454,0.154 0.909,0.308 1.364,0.46c7.815,2.612 15.748,4.872 23.761,6.794c1.011,0.242 2.024,0.48 3.037,0.712c4.09,0.938 8.233,-1.345 9.623,-5.304c0.258,-0.731 0.512,-1.463 0.764,-2.196c0.268,-0.783 0.534,-1.567 0.796,-2.352c0.741,-2.208 0.512,-4.626 -0.628,-6.657c-1.14,-2.03 -3.085,-3.484 -5.356,-4.001c-1.102,-0.25 -2.203,-0.507 -3.302,-0.771c-9.62,-2.308 -19.117,-5.138 -28.411,-8.531c0,0 -0.001,0 -0.001,0Z" style="fill:#faf3d2;stroke:#e9e9e9;stroke-width:1px;"/><path d="M532.071,307.161c-0.832,2.954 0.046,6.125 2.278,8.231c2.231,2.106 5.448,2.798 8.348,1.796c5.319,-1.842 10.582,-3.844 15.773,-6.019c3.188,-1.336 6.35,-2.737 9.48,-4.205c2.017,-0.949 3.563,-2.674 4.287,-4.783c2.056,-6.043 3.888,-12.16 5.504,-18.334c0.307,-1.186 -0.125,-2.439 -1.096,-3.185c-0.971,-0.745 -2.294,-0.837 -3.359,-0.234c-0.002,-0.001 -0.002,0 -0.003,0c-9.836,5.569 -20.134,10.307 -30.703,14.305c-1.283,0.486 -2.569,0.96 -3.859,1.423c-2.55,0.916 -4.487,3.026 -5.181,5.644c-0.267,1.007 -0.539,2.012 -0.815,3.016c-0.215,0.782 -0.433,1.564 -0.654,2.345Z" style="fill:#faf3d2;stroke:#e9e9e9;stroke-width:1px;"/><path d="M301.19,273.826c-0.376,-0.246 -0.855,-0.269 -1.253,-0.06c-0.397,0.209 -0.649,0.618 -0.658,1.067c-0.007,0.324 -0.013,0.648 -0.02,0.972c-0.112,5.474 -0.245,10.948 -0.407,16.421c-0.092,3.073 1.533,5.942 4.215,7.443c1.911,1.059 3.835,2.093 5.774,3.099c2.216,1.15 4.833,1.233 7.117,0.227c2.284,-1.006 3.989,-2.994 4.636,-5.404c0.736,-2.735 1.433,-5.481 2.094,-8.235c0.409,-1.714 -0.413,-3.485 -1.986,-4.279c0,-0.001 0,-0.001 -0.001,-0.001c-6.705,-3.384 -13.233,-7.124 -19.511,-11.249c0,0 0,0 0,-0.001Z" style="fill:#faf3d2;stroke:#e9e9e9;stroke-width:1px;"/><path d="M177.105,303.349c0.367,1.265 1.552,2.115 2.868,2.057c0.001,0 0.001,0 0.001,0c1.592,-0.071 3.184,-0.164 4.775,-0.271c1.87,-0.126 3.739,-0.272 5.606,-0.435c2.531,-0.222 5.061,-0.476 7.585,-0.765c2.404,-0.276 4.805,-0.584 7.199,-0.934c1.328,-0.193 2.653,-0.402 3.978,-0.62c1.646,-0.27 3.291,-0.554 4.933,-0.852c0,0 0,0 0,0c0.617,-0.112 1.161,-0.475 1.5,-1.004c0.339,-0.528 0.442,-1.174 0.286,-1.782c-1.183,-4.634 -2.269,-9.293 -3.26,-13.972c-0.502,-2.389 -2.802,-3.953 -5.207,-3.543c-0.001,0 -0.001,0 -0.001,0c-1.866,0.318 -3.736,0.62 -5.61,0.89c-2.071,0.299 -4.148,0.564 -6.227,0.802c-2.337,0.268 -4.678,0.503 -7.021,0.708c-2.404,0.211 -4.811,0.391 -7.221,0.53c-1.017,0.059 -2.035,0.11 -3.054,0.15c-0.769,0.029 -1.537,0.053 -2.306,0.058c-0.003,0 -0.006,0 -0.008,0c0,0 0,0 0,0c-0.003,-0.001 -0.005,-0.002 -0.008,-0.002c-0.284,-0.057 -0.361,-0.076 -0.646,-0.121c-0.282,-0.044 -0.567,-0.078 -0.852,-0.102c-0.631,-0.052 -1.267,-0.052 -1.898,-0.006c0,0 0,0 0,0c-0.078,0.006 -0.149,0.045 -0.196,0.108c-0.046,0.062 -0.063,0.142 -0.046,0.218c1.421,6.343 3.028,12.643 4.83,18.888Z" style="fill:#faf3d2;stroke:#e9e9e9;stroke-width:1px;"/><path d="M123.759,278.988c-2.546,-0.572 -5.207,0.208 -7.041,2.063c-1.835,1.855 -2.585,4.525 -1.985,7.064c0.496,2.09 1.009,4.175 1.544,6.256c0.785,3.03 3.219,5.355 6.283,5.999c4.186,0.872 8.396,1.628 12.623,2.27c3.322,0.504 6.653,0.939 9.993,1.304c2.666,0.292 5.308,-0.731 7.082,-2.743c1.773,-2.012 2.457,-4.761 1.832,-7.369c-0.374,-1.566 -0.738,-3.135 -1.092,-4.705c-0.767,-3.43 -3.623,-5.996 -7.114,-6.392c-7.434,-0.864 -14.823,-2.108 -22.124,-3.747c-0.001,0 -0.001,0 -0.001,0Z" style="fill:#faf3d2;stroke:#e9e9e9;stroke-width:1px;"/><path d="M471.336,294.34c-0.188,0.776 0.005,1.597 0.521,2.207c0.516,0.611 1.292,0.939 2.09,0.883c0,0 0,0 0.001,0c10.231,-0.721 20.439,-1.803 30.59,-3.273c1.837,-0.266 3.672,-0.545 5.505,-0.836c3.306,-0.526 5.966,-2.999 6.73,-6.258c0.719,-3.098 1.394,-6.206 2.026,-9.323c0.538,-2.664 -0.272,-5.422 -2.165,-7.372c-1.893,-1.951 -4.626,-2.842 -7.305,-2.383c-9.829,1.656 -19.727,2.907 -29.654,3.791c0,0 0,0 0,0c-2.196,0.196 -3.991,1.832 -4.389,4c-1.151,6.221 -2.466,12.413 -3.95,18.564Z" style="fill:#faf3d2;stroke:#e9e9e9;stroke-width:1px;"/><path d="M234.696,292.438c0.296,1.172 1.05,2.175 2.094,2.785c1.043,0.61 2.288,0.774 3.453,0.456c0,0.001 0.001,0.001 0.001,0.001c1.512,-0.413 3.019,-0.842 4.515,-1.31c0.534,-0.167 1.065,-0.341 1.592,-0.527c0.462,-0.162 0.922,-0.334 1.373,-0.525c0.216,-0.092 0.431,-0.187 0.643,-0.289c0.058,-0.028 0.116,-0.057 0.174,-0.086c0.064,-0.031 0.127,-0.064 0.19,-0.097c0.24,-0.127 0.48,-0.255 0.72,-0.381c0.007,-0.004 0.014,-0.007 0.021,-0.011c2.62,-1.351 5.378,-2.408 8.141,-3.425l0.007,-0.002c1.006,-0.369 1.684,-1.313 1.713,-2.383c0.005,-0.174 0.009,-0.347 0.014,-0.521c0.149,-5.635 0.27,-11.271 0.371,-16.907c0,0 0,0 0,0c0.014,-0.795 -0.367,-1.545 -1.016,-2.003c-0.65,-0.459 -1.485,-0.566 -2.229,-0.286c-0.209,0.079 -0.418,0.157 -0.628,0.235c-1.705,0.634 -3.42,1.244 -5.129,1.867c-0.004,0.001 -0.007,0.003 -0.01,0.004c-0.384,0.141 -0.768,0.282 -1.152,0.424c-0.006,0.002 -0.011,0.004 -0.016,0.006c-1.827,0.681 -3.645,1.385 -5.436,2.156c-1.474,0.634 -2.928,1.314 -4.354,2.051c-0.306,0.159 -0.625,0.293 -0.954,0.4c0,0 0,0 0,0c-0.003,0.001 -0.006,0.002 -0.009,0.003c-1.357,0.438 -2.731,0.825 -4.107,1.2c0,0 0,0 0,0c-2.033,0.554 -3.284,2.595 -2.855,4.659c0.877,4.187 1.834,8.357 2.873,12.506Z" style="fill:#faf3d2;stroke:#e9e9e9;stroke-width:1px;"/><path d="M389.106,295.278c9.436,1.167 20.099,1.996 20.099,1.996c10.874,0.82 21.779,1.23 32.684,1.248c0.516,0.001 1.033,0.001 1.549,0c3.773,-0.005 7.061,-2.57 7.983,-6.229c0.736,-2.952 1.432,-5.913 2.088,-8.884c0.538,-2.447 -0.067,-5.006 -1.644,-6.954c-1.576,-1.948 -3.953,-3.073 -6.458,-3.057c-3.297,0.02 -6.593,0.002 -9.889,-0.053c-7.034,-0.117 -14.065,-0.408 -21.084,-0.879c-0.069,-0.005 -0.137,-0.01 -0.205,-0.017l-19.61,-1.81c-0.068,-0.008 -0.137,-0.015 -0.206,-0.021c-1.823,-0.215 -3.645,-0.443 -5.464,-0.684c-7.909,-1.046 -15.785,-2.34 -23.609,-3.901c-3.827,-0.764 -7.641,-1.592 -11.439,-2.489c-1.49,-0.354 -3.06,-0.072 -4.334,0.778c-1.273,0.849 -2.137,2.19 -2.383,3.702c0,0 0,0 0,0c-0.617,3.789 -1.294,7.568 -2.031,11.336c-0.834,4.249 1.862,8.391 6.085,9.347c0,0.002 0,0.002 0.001,0.002c9.54,2.162 19.169,3.932 28.847,5.35c3.002,0.44 6.009,0.846 9.02,1.219Z" style="fill:#faf3d2;stroke:#e9e9e9;stroke-width:1px;"/><path d="M179.538,285.843c0.05,0.029 0.099,0.06 0.147,0.093c0.061,0.043 0.139,0.097 0.139,0.097c0,0 -0.002,-0.001 -0.006,-0.004c-0.072,-0.05 -0.145,-0.098 -0.22,-0.144c-0.026,-0.017 -0.053,-0.034 -0.075,-0.048c-0.001,0 -0.001,-0.001 -0.001,-0.002c0.001,0 0.001,0 0.002,0c0.005,0.003 0.009,0.005 0.014,0.008Z" style="fill:#faf3d2;stroke:#e9e9e9;stroke-width:1px;"/><path d="M170.873,277.894c0.022,0.106 0.115,0.182 0.223,0.183c0,0 0,0 0,0c0.18,0 0.36,0.001 0.54,0.001c0.198,0 0.647,0.003 0.899,-0.003c0.097,-0.002 0.193,-0.007 0.289,-0.01c0.018,-0.001 0.035,-0.002 0.053,-0.003c0,0 0,0 0,0c0.04,-0.002 0.08,-0.001 0.12,0.003l0.16,0.014c0.195,0.016 0.203,0.016 0.383,0.029c0.032,0.002 0.063,0.004 0.095,0.006c0.977,0.054 1.956,0.055 2.935,0.044c1.114,-0.012 2.228,-0.041 3.342,-0.077c3.225,-0.105 6.449,-0.272 9.67,-0.472c2.736,-0.171 5.471,-0.369 8.203,-0.598c2.389,-0.201 4.776,-0.425 7.159,-0.679c0,0 0.001,0 0.001,0c1.504,-0.161 2.875,-0.936 3.788,-2.142c0.913,-1.206 1.287,-2.735 1.033,-4.226c-0.805,-4.776 -1.514,-9.568 -2.131,-14.371c-0.335,-2.635 -2.716,-4.519 -5.357,-4.237c0,0 0,0 0,0c-4.335,0.462 -8.681,0.819 -13.031,1.105c-2.624,0.172 -5.25,0.318 -7.878,0.429c-1.026,0.043 -2.053,0.082 -3.081,0.11c-0.823,0.024 -1.647,0.041 -2.472,0.045c-0.004,0 -0.008,0 -0.012,0c0,0 0,0 0,0c-0.02,0 -0.041,-0.002 -0.061,-0.005c-0.002,-0.001 -0.004,-0.001 -0.006,-0.002c-0.062,-0.01 -0.124,-0.02 -0.186,-0.029c-0.04,-0.006 -0.087,-0.013 -0.126,-0.019c-0.068,-0.01 -0.137,-0.019 -0.205,-0.027c-0.38,-0.046 -0.76,-0.083 -1.142,-0.099c-0.488,-0.022 -0.975,-0.017 -1.462,0.009c-0.3,0.016 -0.598,0.043 -0.897,0.074c-0.004,0 -0.009,0.001 -0.014,0.001c-0.01,0.001 -0.028,0.003 -0.046,0.005c-0.037,0.005 -0.075,0.007 -0.112,0.006c-0.001,0.001 -0.001,0.001 -0.001,0.001c-1.21,-0.004 -2.362,0.519 -3.157,1.431c-0.795,0.912 -1.156,2.124 -0.988,3.322c0.96,6.759 2.114,13.491 3.472,20.181Z" style="fill:#faf3d2;stroke:#e9e9e9;stroke-width:1px;"/><path d="M109.865,208.992c-1.133,-0.14 -2.272,0.22 -3.12,0.985c-0.848,0.765 -1.321,1.861 -1.298,3.003c0,0.001 0,0.001 0,0.002c0.097,4.715 0.279,9.429 0.549,14.138c0.231,4.033 0.526,8.062 0.887,12.086c0.98,10.907 2.443,21.778 4.424,32.552c0.077,0.421 0.405,0.75 0.825,0.83c0,0 0.001,0 0.001,0c6.532,1.241 13.107,2.258 19.707,3.066c2.654,0.326 5.312,0.617 7.973,0.875c2.543,0.249 5.058,-0.697 6.808,-2.559c1.75,-1.863 2.537,-4.431 2.131,-6.955c-0.458,-2.86 -0.882,-5.726 -1.273,-8.596c-0.508,-3.771 -3.53,-6.704 -7.315,-7.099c-2.068,-0.216 -4.134,-0.453 -6.198,-0.713c-8.511,-1.07 -16.978,-2.517 -25.35,-4.391c-0.001,-0.001 -0.002,-0.001 -0.003,-0.001c-0.023,-0.006 -0.038,-0.029 -0.033,-0.053c0.004,-0.023 0.026,-0.039 0.05,-0.037c6.968,0.811 13.954,1.467 20.949,1.987c2.365,0.176 4.731,0.336 7.098,0.481c2.394,0.148 4.734,-0.755 6.408,-2.472c1.675,-1.718 2.519,-4.079 2.312,-6.469c-0.342,-3.946 -0.623,-7.897 -0.845,-11.851c-0.269,-4.8 -0.452,-9.605 -0.551,-14.412c0,0 0,0 0,0c-0.017,-0.822 -0.665,-1.492 -1.485,-1.537c-0.263,-0.014 -0.526,-0.028 -0.788,-0.043c-8.878,-0.496 -17.745,-1.216 -26.582,-2.198c-1.762,-0.196 -3.522,-0.402 -5.281,-0.619Z" style="fill:#faf3d2;stroke:#e9e9e9;stroke-width:1px;"/><path d="M253.15,165.338c1.702,0.194 3.406,-0.354 4.676,-1.503c1.27,-1.15 1.985,-2.79 1.962,-4.503c-0.083,-6.178 -0.181,-12.355 -0.295,-18.532c-0.152,-8.255 -0.332,-16.509 -0.549,-24.763c-0.182,-6.951 -0.391,-13.901 -0.639,-20.85c-0.141,-3.926 -0.293,-7.852 -0.466,-11.777c-0.038,-0.865 -0.582,-1.626 -1.388,-1.942c0,0 0,0 0,0c-1.202,-0.471 -2.409,-0.93 -3.619,-1.379c-2.022,-0.751 -4.263,-0.643 -6.204,0.297c-1.941,0.941 -3.414,2.634 -4.077,4.686c-0.001,0 -0.001,0 -0.001,0.001c-0.951,2.942 -1.859,5.899 -2.727,8.867c-0.589,2.022 0.507,4.151 2.495,4.846c0,0 0,0 0,0c3.667,1.281 7.293,2.677 10.87,4.192c1.167,0.495 2.33,1.002 3.487,1.523c0,0 0.001,0.001 0.002,0.001c0.071,0.034 0.105,0.116 0.077,0.19c-0.028,0.074 -0.107,0.114 -0.183,0.092c-0.285,-0.082 -0.57,-0.164 -0.855,-0.245c-4.579,-1.306 -9.195,-2.481 -13.839,-3.534c-2.133,-0.481 -4.264,0.817 -4.816,2.933c0,0 0,0.001 0,0.001c-1.601,6.14 -3.042,12.322 -4.331,18.536c-0.245,1.183 0.509,2.344 1.689,2.602c0.001,0 0.003,0 0.004,0.001c0.057,0.015 0.093,0.071 0.083,0.13c-0.011,0.058 -0.065,0.098 -0.124,0.091c-0.001,0 -0.001,0 -0.001,0c-1.233,-0.14 -2.366,0.691 -2.603,1.908c-0.395,2.029 -0.775,4.061 -1.138,6.095c-1.193,6.674 -2.218,13.378 -3.075,20.103c-0.274,2.171 0.327,4.361 1.67,6.089c1.342,1.727 3.317,2.85 5.488,3.121c2.181,0.272 4.359,0.56 6.536,0.866c3.927,0.552 7.846,1.162 11.754,1.838c0.045,0.008 0.09,0.014 0.136,0.019c0,0 0.001,0 0.001,0Z" style="fill:#faf3d2;stroke:#e9e9e9;stroke-width:1px;"/><path d="M427.59,224.129c-4.412,-0.09 -8.113,3.311 -8.396,7.715c-0.442,6.692 -1.055,13.372 -1.844,20.031c-0.279,2.309 0.43,4.629 1.953,6.386c1.523,1.758 3.717,2.791 6.042,2.844c5.996,0.134 11.994,0.196 17.991,0.191c2.406,-0.002 4.811,-0.015 7.216,-0.039c4.103,-0.041 7.551,-3.092 8.09,-7.159c0.65,-4.95 1.196,-9.913 1.643,-14.884c0.361,-4.024 0.656,-8.053 0.887,-12.086c0,-0.001 0,-0.001 0,-0.001c0.046,-0.793 -0.242,-1.568 -0.793,-2.14c-0.552,-0.571 -1.316,-0.886 -2.11,-0.869c-5.925,0.123 -11.851,0.176 -17.777,0.159c-4.301,-0.013 -8.602,-0.061 -12.902,-0.148Z" style="fill:#faf3d2;stroke:#e9e9e9;stroke-width:1px;"/><path d="M478.639,254.048c-0.203,1.604 0.316,3.216 1.418,4.4c1.102,1.185 2.673,1.818 4.288,1.731c0,0.001 0,0.001 0,0.001c10.51,-0.57 21.009,-1.363 31.482,-2.41c3.832,-0.388 6.884,-3.378 7.352,-7.201c0.458,-3.779 0.856,-7.565 1.197,-11.355c0.361,-4.024 0.656,-8.053 0.887,-12.086c0,-0.001 0,-0.001 0,-0.001c0.109,-1.903 -0.625,-3.757 -2.007,-5.07c-1.382,-1.312 -3.272,-1.95 -5.167,-1.742c-1.314,0.144 -2.628,0.284 -3.942,0.419c-8.518,0.879 -17.054,1.58 -25.601,2.12c-4.154,0.258 -7.464,3.572 -7.717,7.726c-0.493,7.843 -1.22,15.67 -2.19,23.468Z" style="fill:#faf3d2;stroke:#e9e9e9;stroke-width:1px;"/><path d="M360.797,219.576c-2.267,-0.276 -4.547,0.402 -6.296,1.871c-1.749,1.468 -2.811,3.597 -2.931,5.878c-0.366,6.686 -0.9,13.363 -1.609,20.021c-0.489,4.49 2.728,8.538 7.213,9.075c3.421,0.411 6.847,0.791 10.275,1.144c7.031,0.725 14.073,1.334 21.123,1.838c4.364,0.308 8.208,-2.845 8.759,-7.185c0.545,-4.326 1.011,-8.662 1.401,-13.004c0.361,-4.024 0.656,-8.053 0.887,-12.086c0,0 0,0 0,-0.001c0.129,-2.255 -1.586,-4.192 -3.841,-4.336c-7.129,-0.461 -14.251,-1.034 -21.362,-1.729c-4.545,-0.444 -9.085,-0.938 -13.619,-1.486Z" style="fill:#faf3d2;stroke:#e9e9e9;stroke-width:1px;"/><path d="M179.126,254.072c0.066,0.028 0.131,0.058 0.195,0.09c0.068,0.035 0.148,0.076 0.148,0.076c0,0 0,0 0,0c-0.085,-0.043 -0.17,-0.084 -0.257,-0.123c-0.03,-0.014 -0.061,-0.028 -0.087,-0.04c-0.001,-0.001 -0.001,-0.001 -0.001,-0.002c0.001,-0.001 0.001,-0.001 0.002,-0.001c0,0 0,0 0,0Z" style="fill:#faf3d2;stroke:#e9e9e9;stroke-width:1px;"/><path d="M178.967,213.337c0.065,0.017 0.129,0.035 0.192,0.055c0.014,0.005 0.028,0.009 0.04,0.013c0.001,0 0.001,0.001 0.001,0.001c0,0 -0.001,0 -0.001,0c-0.06,-0.017 -0.174,-0.049 -0.259,-0.074c-0.001,0 -0.001,0 -0.001,-0.001c0,-0.001 0.001,-0.001 0.001,-0.001c0.009,0.002 0.018,0.005 0.027,0.007Z" style="fill:#faf3d2;stroke:#e9e9e9;stroke-width:1px;"/><path d="M177.904,213.065c0.05,0.01 0.099,0.021 0.147,0.033c0.018,0.005 0.038,0.01 0.059,0.016c0.001,0 0.002,0.001 0.001,0.002c0,0.001 -0.001,0.001 -0.002,0.001c-0.072,-0.017 -0.149,-0.035 -0.193,-0.046c-0.026,-0.006 -0.051,-0.012 -0.077,-0.017c-0.014,-0.003 -0.026,-0.005 -0.026,-0.005c0.03,0.005 0.061,0.011 0.091,0.016Z" style="fill:#faf3d2;stroke:#e9e9e9;stroke-width:1px;"/><path d="M459.924,166.022c-0.202,-2.093 -1.957,-3.693 -4.06,-3.701c-3.505,-0.011 -7.01,-0.018 -10.515,-0.022c-0.002,0 -0.004,0 -0.006,0c-1.376,-0.001 -2.752,-0.001 -4.128,-0.001c-0.001,0 -0.002,0 -0.003,0c-4.765,0.003 -9.529,0.014 -14.294,0.034c-2.293,0.009 -4.479,0.974 -6.032,2.662c-1.553,1.687 -2.332,3.946 -2.151,6.232c0.128,1.606 0.247,3.212 0.356,4.82c0.697,10.201 1.03,20.427 0.986,30.653c-0.002,0.604 -0.006,1.208 -0.012,1.813c-0.001,0.184 0.071,0.362 0.2,0.494c0.13,0.131 0.306,0.206 0.491,0.207c0,0 0,0 0,0c11.768,0.068 23.537,0.081 35.305,0.039c0,0 0,0 0.001,0c3.18,-0.011 5.749,-2.597 5.74,-5.777c-0.013,-3.447 -0.07,-6.894 -0.172,-10.34c-0.267,-9.053 -0.838,-18.097 -1.706,-27.112c0,0 0,-0.001 0,-0.001Z" style="fill:#faf3d2;stroke:#e9e9e9;stroke-width:1px;"/><path d="M398.371,166.022c-0.188,-1.955 -1.844,-3.44 -3.808,-3.414c-9.284,0.121 -18.568,0.281 -27.851,0.482c-2.595,0.057 -5.19,0.116 -7.784,0.18c-2.261,0.055 -4.4,1.036 -5.916,2.714c-1.517,1.678 -2.277,3.905 -2.104,6.159c0.101,1.301 0.196,2.601 0.285,3.903c0.697,10.201 1.03,20.427 0.986,30.653c0,0 0,0 0,0c-0.004,0.797 0.63,1.45 1.426,1.471c9.366,0.246 18.733,0.444 28.101,0.603c3.388,0.058 6.776,0.11 10.164,0.157c2.222,0.031 4.362,-0.836 5.936,-2.405c1.573,-1.569 2.447,-3.707 2.422,-5.929c-0.027,-2.487 -0.077,-4.975 -0.151,-7.461c-0.267,-9.053 -0.838,-18.097 -1.706,-27.112c0,0 0,-0.001 0,-0.001Z" style="fill:#faf3d2;stroke:#e9e9e9;stroke-width:1px;"/><path d="M553.013,164.05c-2.341,-0.08 -4.606,0.839 -6.229,2.529c-1.623,1.69 -2.45,3.991 -2.275,6.327c0.079,1.046 0.155,2.093 0.226,3.14c0.697,10.201 1.03,20.427 0.986,30.653c0,0 0,0 0,0c-0.001,0.279 0.111,0.547 0.311,0.741c0.2,0.195 0.471,0.3 0.75,0.291c6.997,-0.224 13.993,-0.478 20.988,-0.769c4.721,-0.197 9.443,-0.41 14.163,-0.645c3.117,-0.156 5.552,-2.749 5.513,-5.87c0,0 0,0 0,0c-0.1,-7.832 -0.46,-15.66 -1.072,-23.469c-0.126,-1.607 -0.262,-3.214 -0.41,-4.82c-0.353,-3.865 -3.501,-6.879 -7.378,-7.064c0,0 -0.001,0 -0.001,0c-8.521,-0.406 -17.045,-0.749 -25.572,-1.044Z" style="fill:#faf3d2;stroke:#e9e9e9;stroke-width:1px;"/><path d="M299.79,198.32c0.017,4.39 3.47,7.997 7.855,8.204c3.695,0.174 7.391,0.336 11.087,0.488c1.671,0.068 3.342,0.135 5.013,0.199c2.263,0.088 4.461,-0.759 6.081,-2.342c1.619,-1.582 2.516,-3.761 2.481,-6.025c-0.03,-1.903 -0.072,-3.806 -0.128,-5.709c-0.267,-9.053 -0.838,-18.097 -1.706,-27.112c0,0 0,0 0,0c-0.103,-1.069 -1.021,-1.872 -2.094,-1.834c-6.754,0.246 -13.507,0.522 -20.258,0.838c-0.741,0.035 -1.483,0.07 -2.224,0.106c-3.552,0.17 -6.334,3.119 -6.297,6.675c0,0.001 0,0.001 0,0.001c0.091,8.837 0.155,17.674 0.19,26.511Z" style="fill:#faf3d2;stroke:#e9e9e9;stroke-width:1px;"/><path d="M163.749,206.794c0,0.058 0.047,0.104 0.104,0.104c0,0 0.001,0 0.001,0c2.077,0.007 4.155,0.01 6.233,0.012c0.747,0 1.495,0.002 2.242,0c0.014,0 0.028,0 0.041,0c0.293,-0.002 0.586,-0.007 0.879,-0.011c0.157,-0.001 0.156,-0.001 0.314,0.006l0.193,0.005c0.032,0.001 0.064,0.001 0.097,0.002c0.191,0.002 0.382,0.004 0.573,0.006c0.01,0 0.02,0 0.029,0c0.665,0.002 1.329,0.002 1.993,0.002c0.002,0 0.005,0 0.007,0c4.355,-0.007 8.71,-0.034 13.065,-0.066c4.517,-0.033 9.033,-0.075 13.549,-0.13c0,0 0.214,-0.003 0.472,-0.006c0.502,-0.006 0.905,-0.415 0.904,-0.917c0,0 0,0 0,0c-0.01,-4.42 0.051,-8.84 0.182,-13.258c0.185,-6.308 0.512,-12.611 0.978,-18.905c0.171,-2.273 -0.608,-4.516 -2.151,-6.195c-1.542,-1.679 -3.712,-2.644 -5.992,-2.665c-9.819,-0.091 -19.64,-0.126 -29.46,-0.111c0,0 -0.421,0 -0.899,0.001c-0.766,0.002 -1.406,0.584 -1.479,1.346c0,0 0,0.001 0,0.001c-0.868,9.015 -1.439,18.059 -1.706,27.112c-0.134,4.554 -0.191,9.111 -0.169,13.667Z" style="fill:#faf3d2;stroke:#e9e9e9;stroke-width:1px;"/><path d="M105.426,197.891c-0.082,4.537 3.518,8.287 8.054,8.391c7.377,0.165 14.755,0.294 22.133,0.391c4.544,0.058 8.279,-3.571 8.35,-8.115c0.025,-1.713 0.062,-3.425 0.108,-5.137c0.18,-6.565 0.513,-13.125 0.995,-19.674c0.173,-2.305 -0.63,-4.577 -2.213,-6.262c-1.582,-1.684 -3.8,-2.627 -6.111,-2.597c-4.228,0.053 -8.456,0.117 -12.684,0.192c-5.393,0.097 -10.786,0.21 -16.179,0.344c-0.33,0.008 -0.603,0.261 -0.635,0.591c0,0 0,0 0,0c-0.868,9.015 -1.439,18.059 -1.706,27.112c-0.047,1.588 -0.084,3.176 -0.112,4.764Z" style="fill:#faf3d2;stroke:#e9e9e9;stroke-width:1px;"/><path d="M108.323,156.08c-0.195,1.631 0.367,3.262 1.526,4.428c1.159,1.165 2.786,1.737 4.419,1.553c0,0 0,0 0,0c5.699,-0.644 11.411,-1.179 17.129,-1.615c2.685,-0.204 5.371,-0.387 8.058,-0.55c3.973,-0.239 7.208,-3.282 7.688,-7.234c0.975,-7.909 2.17,-15.792 3.587,-23.634c0,-0.001 0,-0.001 0,-0.002c0.299,-1.653 -0.172,-3.353 -1.279,-4.617c-1.107,-1.264 -2.729,-1.955 -4.408,-1.877c-2.133,0.099 -4.265,0.209 -6.397,0.332c-6.4,0.369 -12.794,0.848 -19.176,1.448c-3.668,0.349 -6.659,3.09 -7.326,6.713c-0.141,0.759 -0.279,1.518 -0.414,2.277c-1.351,7.558 -2.486,15.155 -3.407,22.778Z" style="fill:#faf3d2;stroke:#e9e9e9;stroke-width:1px;"/><path d="M179.162,121.951c-3.993,-0.045 -7.445,2.777 -8.193,6.7c-0.296,1.549 -0.582,3.099 -0.859,4.651c-1.297,7.256 -2.395,14.548 -3.296,21.864c-0.116,0.956 0.184,1.917 0.824,2.637c0.64,0.72 1.559,1.131 2.523,1.128c0,0 0,0 0,0c9.653,-0.035 19.307,0.175 28.948,0.65c4.321,0.22 8.077,-2.937 8.603,-7.232c0.968,-7.804 2.15,-15.582 3.548,-23.321c0,-0.001 0,-0.001 0,-0.001c0.265,-1.464 -0.11,-2.971 -1.029,-4.14c-0.919,-1.169 -2.294,-1.89 -3.779,-1.979c-6.063,-0.358 -12.132,-0.616 -18.203,-0.781c-3.028,-0.082 -6.058,-0.14 -9.087,-0.176Z" style="fill:#faf3d2;stroke:#e9e9e9;stroke-width:1px;"/><path d="M391.079,119.103c-0.879,-4.028 -4.599,-6.788 -8.709,-6.46c-5.795,0.465 -11.584,1.005 -17.365,1.622c-4.42,0.472 -8.835,0.99 -13.244,1.557c-2.251,0.292 -4.282,1.498 -5.615,3.336c-1.333,1.837 -1.849,4.143 -1.427,6.373c0.023,0.125 0.046,0.25 0.07,0.375c1.504,7.977 2.776,15.998 3.821,24.047c0,0.001 0,0.001 0,0.001c0.123,0.947 0.619,1.806 1.378,2.386c0.758,0.58 1.717,0.833 2.663,0.704c7.46,-1.015 14.94,-1.873 22.434,-2.597c4.131,-0.4 8.267,-0.758 12.405,-1.077c2.3,-0.177 4.421,-1.31 5.848,-3.123c1.426,-1.813 2.027,-4.141 1.658,-6.418c-0.312,-1.925 -0.638,-3.848 -0.977,-5.768c-0.884,-5.004 -1.863,-9.992 -2.94,-14.958Z" style="fill:#faf3d2;stroke:#e9e9e9;stroke-width:1px;"/><path d="M481.8,111.259c-2.538,-0.126 -4.993,0.925 -6.653,2.85c-1.659,1.925 -2.338,4.508 -1.84,7c0.32,1.597 0.632,3.196 0.933,4.797c1.226,6.502 2.298,13.033 3.218,19.586c0.213,1.525 1.479,2.686 3.017,2.765c0,0 0,0 0,0c11.822,0.61 23.63,1.516 35.402,2.764c0.001,0 0.001,0 0.001,0c1.571,0.167 3.131,-0.403 4.225,-1.543c1.094,-1.139 1.599,-2.721 1.369,-4.284c-0.552,-3.719 -1.155,-7.431 -1.809,-11.133c-0.851,-4.813 -1.789,-9.611 -2.817,-14.389c-0.764,-3.523 -3.728,-6.142 -7.318,-6.465c-0.291,-0.028 -0.583,-0.054 -0.874,-0.08c-8.938,-0.794 -17.892,-1.413 -26.854,-1.868Z" style="fill:#faf3d2;stroke:#e9e9e9;stroke-width:1px;"/><path d="M451.812,115.41c-0.685,-2.99 -3.34,-5.115 -6.407,-5.126c-0.001,-0.001 -0.001,-0.001 -0.001,-0.001c-0.001,0 -0.002,0 -0.004,0c-1.16,-0.004 -2.321,-0.005 -3.481,-0.005c-0.003,0 -0.005,0 -0.007,0c-4.116,0.006 -8.231,0.04 -12.346,0.108c-3.367,0.056 -6.734,0.133 -10.1,0.233c-2.429,0.072 -4.702,1.212 -6.212,3.114c-1.511,1.903 -2.106,4.375 -1.625,6.757c0.365,1.803 0.718,3.608 1.058,5.416c0.917,4.86 1.747,9.735 2.492,14.624c0.623,4.112 4.211,7.116 8.368,7.006c6.585,-0.167 13.171,-0.247 19.757,-0.241c1.57,0.001 3.139,0.007 4.709,0.018c2.435,0.017 4.753,-1.044 6.332,-2.898c1.579,-1.854 2.257,-4.311 1.854,-6.713c-0.204,-1.214 -0.413,-2.428 -0.627,-3.641c-1.104,-6.246 -2.355,-12.466 -3.76,-18.651Z" style="fill:#faf3d2;stroke:#e9e9e9;stroke-width:1px;"/><path d="M531.669,82.333c-0.914,-0.2 -1.866,0.098 -2.502,0.785c-0.636,0.687 -0.861,1.659 -0.591,2.556c0,0 0,0.001 0,0.001c1.97,6.547 3.753,13.151 5.362,19.796c0,0.001 0,0.001 0,0.001c0.501,2.066 2.1,3.688 4.159,4.218c5.757,1.49 11.471,3.145 17.127,4.983c6.852,2.226 13.619,4.721 20.252,7.534c0,0 0,0 0,0c0.495,0.21 1.066,0.123 1.476,-0.225c0.409,-0.348 0.588,-0.897 0.461,-1.419c-0.961,-3.931 -1.995,-7.843 -3.107,-11.734c-1.095,-3.829 -2.266,-7.637 -3.521,-11.417c-0.071,-0.213 -0.143,-0.427 -0.214,-0.641c-0.821,-2.453 -2.746,-4.379 -5.199,-5.201c-2.426,-0.811 -4.863,-1.59 -7.31,-2.34c-6.008,-1.84 -12.071,-3.498 -18.174,-4.991c-2.732,-0.668 -5.472,-1.303 -8.219,-1.906Z" style="fill:#faf3d2;stroke:#e9e9e9;stroke-width:1px;"/><path d="M185.89,93.769c-3.829,-0.144 -7.253,2.369 -8.262,6.066c-0.375,1.366 -0.74,2.734 -1.097,4.104c-1.085,4.161 -2.097,8.342 -3.037,12.538c-0.117,0.52 0.009,1.065 0.34,1.483c0.331,0.417 0.834,0.663 1.367,0.668c0.001,0 0.001,0 0.001,0c8.368,0.08 16.734,0.488 25.068,1.245c1.691,0.154 3.38,0.322 5.068,0.504c4.187,0.452 8.04,-2.325 8.937,-6.439c0.954,-4.35 1.98,-8.684 3.081,-12.999c0.277,-1.079 0.077,-2.226 -0.549,-3.148c-0.626,-0.922 -1.617,-1.531 -2.723,-1.673c0,0 0,0 0,0c-9.358,-1.195 -18.768,-1.97 -28.194,-2.349Z" style="fill:#faf3d2;stroke:#e9e9e9;stroke-width:1px;"/><path d="M472.608,74.051c-2.699,-0.177 -5.313,0.982 -6.994,3.101c-1.682,2.119 -2.216,4.928 -1.431,7.517c0.1,0.336 0.201,0.671 0.302,1.006c0.764,2.538 1.499,5.085 2.207,7.639c0.93,3.356 3.868,5.766 7.341,6.021c6.992,0.524 13.971,1.229 20.925,2.124c1.889,0.243 3.775,0.499 5.66,0.771c2.787,0.398 5.583,-0.653 7.418,-2.787c1.835,-2.135 2.454,-5.058 1.642,-7.753c-0.475,-1.583 -0.962,-3.163 -1.461,-4.739c-0.561,-1.773 -1.137,-3.542 -1.729,-5.305c-0.859,-2.555 -3.094,-4.402 -5.766,-4.762c0,-0.001 0,-0.001 0,-0.001c-9.336,-1.261 -18.715,-2.199 -28.114,-2.832Z" style="fill:#faf3d2;stroke:#e9e9e9;stroke-width:1px;"/><path d="M298.125,99.187c0.004,0.121 0.074,0.231 0.183,0.286c0.108,0.055 0.238,0.047 0.338,-0.022c0,0 0,0 0,0c1.754,-1.196 3.53,-2.36 5.325,-3.495c3.054,-1.93 6.163,-3.772 9.32,-5.529c1.229,-0.682 1.808,-2.135 1.384,-3.476c0,0 0,0 0,0c-1.894,-5.987 -3.96,-11.919 -6.232,-17.773c0,0 0,0 0,0c-0.013,-0.035 -0.041,-0.062 -0.076,-0.075c-0.034,-0.013 -0.073,-0.011 -0.105,0.007c-2.252,1.176 -4.484,2.39 -6.695,3.642c-2.696,1.53 -4.306,4.443 -4.166,7.54c0.075,1.697 0.148,3.394 0.217,5.091c0.189,4.6 0.356,9.202 0.507,13.804Z" style="fill:#faf3d2;stroke:#e9e9e9;stroke-width:1px;"/><path d="M440.007,74.803c-0.381,-1.045 -1.38,-1.735 -2.492,-1.723c0,0 -0.001,0 -0.001,0c-3.393,0.039 -6.787,0.115 -10.178,0.231c-5.798,0.197 -11.591,0.507 -17.376,0.933c-2.495,0.186 -4.77,1.495 -6.184,3.559c-1.415,2.063 -1.816,4.657 -1.09,7.051c0.081,0.274 0.164,0.547 0.246,0.821c0.747,2.483 1.467,4.974 2.161,7.472c1.049,3.776 4.611,6.292 8.52,6.018c4.401,-0.305 8.806,-0.538 13.214,-0.702c3.196,-0.119 6.393,-0.202 9.591,-0.248c1.612,-0.024 3.223,-0.037 4.834,-0.043c0.005,0 0.009,0 0.014,0c0.677,-0.002 1.355,-0.003 2.032,-0.002l0.007,0c0.986,0.002 1.916,-0.461 2.509,-1.249c0.593,-0.788 0.78,-1.81 0.504,-2.757c-0.704,-2.413 -1.434,-4.817 -2.192,-7.213c-1.29,-4.077 -2.659,-8.129 -4.119,-12.148Z" style="fill:#faf3d2;stroke:#e9e9e9;stroke-width:1px;"/><path d="M121.51,91.92c-0.078,0.263 -0.011,0.548 0.177,0.748c0.188,0.2 0.468,0.285 0.735,0.223c0.001,0 0.001,0 0.001,0c12.127,-2.807 24.503,-4.518 36.929,-5.212c0,0 0,0 0,0c0.678,-0.038 1.258,-0.497 1.452,-1.147c1.081,-3.626 2.219,-7.234 3.42,-10.822c0,0 0,-0.001 0,-0.001c0.729,-2.18 0.328,-4.58 -1.072,-6.403c-1.399,-1.824 -3.613,-2.834 -5.907,-2.694c-1.285,0.078 -2.569,0.164 -3.852,0.261c-6.587,0.496 -13.156,1.256 -19.68,2.289c-2.945,0.473 -5.404,2.501 -6.43,5.302c-1.282,3.513 -2.494,7.051 -3.643,10.609c-0.735,2.274 -1.445,4.557 -2.13,6.847Z" style="fill:#faf3d2;stroke:#e9e9e9;stroke-width:1px;"/><path d="M190.073,66.808c-0.865,-0.061 -1.669,0.447 -1.986,1.253c0,0 0,0 0,0.001c-2.204,5.603 -4.216,11.281 -6.067,17.011c0,0 -0.001,0 -0.001,0c-0.186,0.576 -0.093,1.206 0.252,1.705c0.344,0.498 0.901,0.807 1.506,0.836c7.007,0.354 13.998,1.031 20.941,2.044c2.555,0.373 5.103,0.791 7.642,1.256c4.126,0.756 8.162,-1.707 9.375,-5.723c0.962,-3.174 1.967,-6.336 3.019,-9.481c0,0 0,-0.001 0,-0.001c0.308,-0.92 0.208,-1.927 -0.273,-2.769c-0.482,-0.842 -1.3,-1.438 -2.249,-1.639c-2.504,-0.528 -5.017,-1.014 -7.538,-1.458c-8.147,-1.437 -16.369,-2.444 -24.621,-3.035Z" style="fill:#faf3d2;stroke:#e9e9e9;stroke-width:1px;"/><path d="M522.68,48.323c-1.658,-0.433 -3.417,0.113 -4.537,1.409c-1.12,1.295 -1.407,3.115 -0.739,4.692c-0.002,0.002 -0.002,0.002 -0.002,0.003c1.994,4.712 3.849,9.483 5.584,14.297c0,0 0,0 0,0c0.409,1.134 1.332,2.005 2.487,2.348c2.524,0.753 5.037,1.543 7.536,2.373c8.082,2.683 16.03,5.774 23.778,9.307c2.864,1.306 5.7,2.672 8.505,4.101c0.34,0.174 0.751,0.119 1.035,-0.137c0.283,-0.255 0.378,-0.66 0.239,-1.015c0,-0.001 0,-0.002 -0.001,-0.002c-1.067,-2.732 -2.189,-5.442 -3.378,-8.123c-1.14,-2.572 -2.341,-5.117 -3.623,-7.622c-0.998,-1.948 -2.044,-3.873 -3.161,-5.757c-0.97,-1.635 -1.992,-3.243 -3.113,-4.78c-0.001,-0.002 -0.003,-0.004 -0.004,-0.006c0,0 0,0 0,0c-0.182,-0.247 -0.403,-0.463 -0.654,-0.638c-0.527,-0.367 -1.059,-0.726 -1.589,-1.089c-0.553,-0.381 -1.15,-0.692 -1.778,-0.928c-2.022,-0.757 -4.053,-1.49 -6.093,-2.198c-6.747,-2.342 -13.586,-4.417 -20.492,-6.235Z" style="fill:#faf3d2;stroke:#e9e9e9;stroke-width:1px;"/><path d="M369.378,53c-1.597,-3.344 -5.356,-5.068 -8.932,-4.097c-0.001,0 -0.001,0 -0.001,0c-9.079,2.467 -18.038,5.379 -26.816,8.765c0,0 -0.001,0.001 -0.001,0.001c-3.996,1.541 -6.023,5.999 -4.558,10.024c0.125,0.343 0.25,0.687 0.374,1.031c0.433,1.2 0.858,2.403 1.276,3.609c0.734,2.109 2.292,3.83 4.318,4.77c2.026,0.94 4.346,1.017 6.43,0.215c2.894,-1.115 5.809,-2.172 8.743,-3.174c5.297,-1.81 10.654,-3.443 16.058,-4.904c2.331,-0.628 4.27,-2.246 5.305,-4.427c1.034,-2.181 1.06,-4.706 0.071,-6.908c-0.492,-1.106 -0.995,-2.206 -1.508,-3.302c-0.251,-0.535 -0.504,-1.07 -0.759,-1.603Z" style="fill:#faf3d2;stroke:#e9e9e9;stroke-width:1px;"/><path d="M449.58,38.283c-0.812,-0.017 -1.574,0.392 -2.01,1.078c-0.435,0.686 -0.48,1.549 -0.119,2.277c0.067,0.135 0.134,0.269 0.201,0.404c2.012,4.069 3.89,8.204 5.659,12.385c0.381,0.899 0.756,1.8 1.126,2.703c0.622,1.517 2.064,2.537 3.701,2.619c0,0 0,0 0.001,0c13.879,0.696 27.715,2.333 41.36,4.974c0,0 0,0 0.001,0c0.153,0.03 0.31,-0.027 0.408,-0.148c0.099,-0.12 0.124,-0.285 0.064,-0.429c-1.325,-3.212 -2.718,-6.396 -4.191,-9.543c-1.969,-4.206 -4.078,-8.349 -6.381,-12.383c0,0 0,0 0,0c-0.258,-0.452 -0.711,-0.76 -1.226,-0.833c-9.159,-1.299 -18.376,-2.191 -27.612,-2.692c-3.658,-0.199 -7.319,-0.336 -10.982,-0.412c0,0 0,0 0,0Z" style="fill:#faf3d2;stroke:#e9e9e9;stroke-width:1px;"/><path d="M424.207,40.324c-0.564,-0.952 -1.616,-1.508 -2.721,-1.437c0,0 0,0 0,0c-10.846,0.698 -21.658,1.937 -32.376,3.742c-0.001,0 -0.001,0 -0.001,0c-0.593,0.1 -1.105,0.472 -1.382,1.006c-0.278,0.533 -0.29,1.165 -0.032,1.708c1.42,2.999 2.771,6.029 4.063,9.084c0.375,0.885 0.744,1.772 1.109,2.661c1.431,3.479 5.035,5.549 8.761,5.03c8.384,-1.145 16.819,-1.925 25.27,-2.356c0.574,-0.029 1.149,-0.057 1.724,-0.083c1.19,-0.054 2.274,-0.699 2.89,-1.718c0.616,-1.019 0.683,-2.279 0.178,-3.357c0,0 0,0 0,-0.001c-1.969,-4.206 -4.078,-8.349 -6.381,-12.383c-0.362,-0.635 -0.729,-1.267 -1.102,-1.896Z" style="fill:#faf3d2;stroke:#e9e9e9;stroke-width:1px;"/><path d="M557.252,61.478c0.023,0.012 0.039,0.035 0.043,0.061c0.003,0.026 -0.005,0.052 -0.024,0.071c-0.562,-0.38 -1.144,-0.724 -1.716,-1.084c-0.002,-0.002 -0.005,-0.004 -0.008,-0.006c0,0 0,0 0,0c0.568,0.319 1.137,0.639 1.705,0.958Z" style="fill:#faf3d2;stroke:#e9e9e9;stroke-width:1px;"/></g></g></svg>