<svg xmlns="http://www.w3.org/2000/svg" xmlns:svg="http://www.w3.org/2000/svg" id="svg2985" width="32" height="32" version="1.1"><metadata id="metadata2990"/><g id="layer1"><path style="fill:none;stroke:#000;stroke-width:2.15448809;stroke-miterlimit:4;stroke-opacity:1;stroke-dasharray:none" id="path2993" d="m 32.952894,14.585868 a 16.119234,13.752699 0 1 1 -32.23846796,0 16.119234,13.752699 0 1 1 32.23846796,0 z" transform="matrix(0.92563207,0,0,1.0849129,0.41822445,0.17560338)"/><path style="fill:#000;fill-opacity:1;stroke:none" id="path3771" d="m 9.8233565,7.9774284 a 1.294897,1.2502453 0 1 1 -2.5897939,0 1.294897,1.2502453 0 1 1 2.5897939,0 z" transform="matrix(1.9306555,0,0,1.9996075,-5.9655177,-5.3517257)"/><path style="fill:#000;fill-opacity:1;fill-rule:nonzero;stroke:none" id="path3773" d="m 22.32581,8.6025515 a 1.65211,1.6074584 0 1 1 -3.30422,0 1.65211,1.6074584 0 1 1 3.30422,0 z" transform="matrix(1.5132165,0,0,1.5552502,-9.7837844,-2.7791198)"/><path style="fill:none;stroke:#000;stroke-width:2.0389359;stroke-linecap:round;stroke-miterlimit:4;stroke-opacity:1;stroke-dasharray:none" id="path3775" d="M 25.362788,24.185449 A 10.761041,8.1265945 0 0 1 5.4615288,24.21241" transform="matrix(0.95177919,0,0,1.176954,1.5530282,-8.5017657)"/></g></svg>