<svg xmlns="http://www.w3.org/2000/svg" xmlns:svg="http://www.w3.org/2000/svg" id="svg2985" width="32" height="32" version="1.1"><metadata id="metadata2990"/><g id="layer1"><g id="g5904" transform="matrix(0.8125,0,0,0.81026768,3,3.0687774)"><path id="path2993" d="m 32.952894,14.585868 c 0,7.595406 -7.216827,13.752699 -16.119234,13.752699 -8.902407,0 -16.11923396,-6.157293 -16.11923396,-13.752699 0,-7.595406 7.21682696,-13.75269902 16.11923396,-13.75269902 8.902407,0 16.119234,6.15729302 16.119234,13.75269902 z" transform="matrix(0.92563207,0,0,1.0849129,0.41822445,0.17560338)" style="fill:none;stroke:#000;stroke-width:2.15448809;stroke-miterlimit:4;stroke-opacity:.49803922;stroke-dasharray:none"/><path id="path3771" d="m 9.8233565,7.9774284 c 0,0.6904915 -0.5797451,1.2502454 -1.294897,1.2502454 -0.7151518,0 -1.2948969,-0.5597539 -1.2948969,-1.2502454 0,-0.6904914 0.5797451,-1.2502453 1.2948969,-1.2502453 0.7151519,0 1.294897,0.5597539 1.294897,1.2502453 z" transform="matrix(1.9306555,0,0,1.9996075,-5.9655177,-5.3517257)" style="fill:#000;fill-opacity:.49659867;stroke:none"/><path id="path3773" d="m 22.32581,8.6025515 c 0,0.8877747 -0.739675,1.6074585 -1.65211,1.6074585 -0.912435,0 -1.65211,-0.7196838 -1.65211,-1.6074585 0,-0.8877748 0.739675,-1.6074584 1.65211,-1.6074584 0.912435,0 1.65211,0.7196836 1.65211,1.6074584 z" transform="matrix(1.5132165,0,0,1.5552502,-9.7837844,-2.7791198)" style="fill:#000;fill-opacity:.49659867;fill-rule:nonzero;stroke:none"/><path id="path3775" d="m 25.362788,24.185449 c -2.252797,4.153255 -8.537389,6.140972 -14.037029,4.43969 C 8.6700503,27.80361 6.5588981,26.215006 5.4615288,24.21241" transform="matrix(0.95177919,0,0,1.176954,1.5530282,-8.5017657)" style="fill:none;stroke:#000;stroke-width:2.0389359;stroke-linecap:round;stroke-miterlimit:4;stroke-opacity:.49803922;stroke-dasharray:none"/></g><rect style="fill:none;stroke:#000;stroke-width:1.19347739;stroke-linecap:round;stroke-linejoin:round;stroke-miterlimit:4;stroke-opacity:.28469753;stroke-dasharray:none;stroke-dashoffset:0" id="rect5910" width="30.807" height="30.807" x=".597" y=".597" rx="2.5" ry="2.5"/></g></svg>